<?xml version="1.0" encoding="UTF-8" standalone="no"?>
<!-- Created with Inkscape (http://www.inkscape.org/) -->

<svg
   xmlns:dc="http://purl.org/dc/elements/1.1/"
   xmlns:cc="http://creativecommons.org/ns#"
   xmlns:rdf="http://www.w3.org/1999/02/22-rdf-syntax-ns#"
   xmlns:svg="http://www.w3.org/2000/svg"
   xmlns="http://www.w3.org/2000/svg"
   xmlns:sodipodi="http://sodipodi.sourceforge.net/DTD/sodipodi-0.dtd"
   xmlns:inkscape="http://www.inkscape.org/namespaces/inkscape"
   width="210mm"
   height="297mm"
   viewBox="0 0 744.09448819 1052.3622047"
   id="svg2"
   version="1.1"
   inkscape:version="0.91 r13725"
   sodipodi:docname="laiklogo.svg"
   inkscape:export-filename="/home/weidendo/laiklogo.png"
   inkscape:export-xdpi="134.74001"
   inkscape:export-ydpi="134.74001">
  <defs
     id="defs4" />
  <sodipodi:namedview
     id="base"
     pagecolor="#ffffff"
     bordercolor="#666666"
     borderopacity="1.0"
     inkscape:pageopacity="0.0"
     inkscape:pageshadow="2"
     inkscape:zoom="1.4"
     inkscape:cx="284.5394"
     inkscape:cy="809.51099"
     inkscape:document-units="px"
     inkscape:current-layer="layer1"
     showgrid="false"
     inkscape:window-width="1653"
     inkscape:window-height="1065"
     inkscape:window-x="789"
     inkscape:window-y="264"
     inkscape:window-maximized="0" />
  <metadata
     id="metadata7">
    <rdf:RDF>
      <cc:Work
         rdf:about="">
        <dc:format>image/svg+xml</dc:format>
        <dc:type
           rdf:resource="http://purl.org/dc/dcmitype/StillImage" />
        <dc:title></dc:title>
      </cc:Work>
    </rdf:RDF>
  </metadata>
  <g
     inkscape:label="Ebene 1"
     inkscape:groupmode="layer"
     id="layer1">
    <path
       sodipodi:type="inkscape:offset"
       inkscape:radius="0.75090152"
       inkscape:original="M 339.32812 154.77344 C 331.34754 154.23256 329.97555 156.17344 331.82227 165.38281 C 333.59751 174.23572 332.33404 178.10993 325.20508 185.66797 C 320.21917 190.95397 319.56527 191.24219 312.63477 191.24219 C 306.15581 191.24219 305.07835 191.63134 303.16016 194.66211 C 299.85188 199.8893 299.23306 218.26033 302.15039 224.625 C 305.2097 231.29942 308.51097 232.65346 317.27148 230.83203 C 323.76701 229.48155 324.73417 229.61513 330.17383 232.60938 L 330.17578 232.60938 C 334.89795 235.20851 337.7056 235.80724 344.42188 235.63867 C 349.0226 235.52319 350.93312 235.18946 348.66797 234.89844 C 346.40283 234.60743 344.54883 233.83163 344.54883 233.17383 C 344.54883 232.51605 342.69679 232.34267 340.43164 232.78906 C 338.1665 233.23544 336.72587 233.13818 337.23047 232.57227 C 337.73507 232.00636 335.73891 229.87277 332.79492 227.83008 C 329.85094 225.78737 326.07132 223.07991 324.39453 221.81445 C 321.39167 219.54821 321.36789 219.55694 322.81055 222.34766 C 324.97852 226.54144 324.67927 226.95549 320.15625 226.0332 C 316.91294 225.37186 316.4406 225.51202 317.9375 226.69141 C 319.46469 227.89465 319.17457 228.04015 316.45898 227.42969 C 314.5279 226.99558 312.88335 227.27557 312.62305 228.08398 C 312.3063 229.06778 311.12651 229.00772 308.75 227.88672 C 301.4003 224.41984 298.98209 204.9108 304.89258 196.76367 C 307.23116 193.54017 308.11046 193.25081 314.36328 193.64648 C 321.00743 194.06692 321.42153 193.89453 325.83594 188.83594 C 328.35466 185.94968 331.32801 182.14511 332.44336 180.38281 C 334.61447 176.95242 336.25041 160.54889 334.29688 161.79883 C 333.66293 162.20444 333.14453 161.95904 333.14453 161.25391 C 333.14453 153.79811 342.7865 153.73159 346.49805 161.16211 C 348.4777 165.12536 349.08476 176.12472 347.25977 174.95703 C 345.71975 173.97167 347.75219 184.58728 349.4375 186.33203 C 350.20113 187.12259 355.25764 188.11694 360.67578 188.54102 C 366.09396 188.96509 371.20096 189.7562 372.02344 190.29883 C 373.64686 191.36984 373.49381 197.1998 371.80078 198.78906 C 371.22579 199.32907 371.22426 198.93277 371.79883 197.9082 C 372.61801 196.44742 372.31998 196.28422 370.41797 197.15234 C 369.08394 197.76123 364.57244 198.65654 360.39062 199.14258 C 353.62552 199.92886 353.3454 200.06846 357.85547 200.41211 L 362.92383 200.79883 L 357.85547 201.64648 C 352.43195 202.55432 349.26893 202.07409 350.2168 200.48633 C 350.53749 199.94913 349.39246 198.73152 347.67383 197.7793 C 344.58379 196.06723 343.658 192.96344 345.5 190.49414 C 346.02273 189.7934 345.45212 190.33153 344.23242 191.68945 C 341.34355 194.90571 341.42159 198.49852 344.44531 201.62891 C 345.78117 203.01188 346.49395 204.56172 346.0293 205.07227 C 345.56466 205.58281 346.32482 205.66292 347.71875 205.25195 C 349.11269 204.84098 355.38089 204.34468 361.64844 204.14844 C 371.14339 203.85115 373.10677 204.13344 373.42383 205.83789 C 374.16015 209.7961 369.98165 211.57918 360.65234 211.28711 C 353.41954 211.06069 352.17279 211.30358 353.89258 212.60547 C 355.69561 213.97038 355.3553 214.20117 351.54297 214.20117 C 347.04636 214.20117 345.42876 212.78735 349.02734 212.00195 C 350.58744 211.66144 350.47249 211.25803 348.44141 209.95703 C 346.26187 208.56094 346.02197 208.636 346.71289 210.5 C 347.25077 211.95112 347.02742 212.35098 346.0332 211.71484 C 344.18147 210.53001 344.13867 211.58532 345.91992 214.54688 C 347.09285 216.49698 348.98438 216.76646 359.05859 216.41211 C 369.43097 216.04727 370.93122 216.27626 371.70117 218.35352 C 372.18349 219.65475 371.97062 220.91902 371.22656 221.17578 C 370.48493 221.43156 370.15021 222.09588 370.48242 222.65234 C 370.81461 223.20881 367.53854 223.69467 363.20312 223.73047 C 352.48602 223.81892 351.46163 224.30123 359.75586 225.35352 L 366.72656 226.23633 L 357.22266 226.58203 C 348.17985 226.91088 347.96427 226.98889 352.78711 228.18555 C 355.57499 228.87728 359.97158 229.2471 362.55664 229.00781 C 366.44162 228.64818 367.19719 228.97108 366.91797 230.86523 C 366.73218 232.12559 366.09435 233.61407 365.5 234.17383 C 364.90565 234.73358 364.82871 234.45467 365.33008 233.55273 C 366.35044 231.71709 365.39384 231.60676 361.6582 233.13086 C 359.43954 234.03605 359.63267 234.28165 363.21094 235.10352 C 368.26496 236.26436 369.89453 235.30823 369.89453 231.17969 C 369.89453 229.41839 371.03576 226.79662 372.42969 225.35352 C 375.12695 222.56111 375.78539 218.16184 373.70703 216.83203 C 372.96498 216.35724 373.5463 214.49852 375.12695 212.28516 C 377.62741 208.78381 377.67458 208.2793 375.85156 204.49609 C 374.74953 202.20909 374.40815 200.12626 375.06641 199.70508 C 376.96953 198.4874 376.39048 192.28972 374.13281 189.70703 C 372.59639 187.94942 370.21458 187.30664 365.22266 187.30664 C 361.47498 187.30664 356.40514 186.44178 353.95703 185.38281 L 349.50586 183.45703 L 350.31836 173.90234 C 351.05483 165.2387 350.84953 163.92165 348.11523 159.75781 C 345.51129 155.79247 344.31226 155.11124 339.32812 154.77344 z M 344.74023 198.50391 C 344.98427 198.26392 345.91967 198.8928 346.81836 199.90234 C 347.71704 200.91189 347.89229 201.73828 347.20898 201.73828 C 345.89305 201.73828 343.98859 199.24313 344.74023 198.50391 z M 367.35938 200.5957 C 367.93358 200.5957 368.50775 200.68717 368.94336 200.86914 C 369.81457 201.23308 369.10178 201.53125 367.35938 201.53125 C 365.61694 201.53125 364.90418 201.23308 365.77539 200.86914 C 366.211 200.68717 366.78516 200.5957 367.35938 200.5957 z M 371.9375 211.32031 C 371.82837 211.50221 371.42855 211.93114 370.76367 212.5625 C 369.10747 214.13521 366.49395 214.79841 362.4668 214.67188 L 356.58789 214.48828 L 363.07031 213.66992 C 366.63484 213.21954 370.36662 212.26935 371.36523 211.55859 C 371.86453 211.20322 372.04663 211.13842 371.9375 211.32031 z M 347.4668 220.67188 C 347.03169 220.8074 346.98409 221.50026 347.66602 222.64258 C 348.12543 223.41214 349.10843 224.04102 349.84961 224.04102 C 350.68988 224.04102 350.59326 223.28785 349.59375 222.04102 C 348.72473 220.95699 347.90191 220.53634 347.4668 220.67188 z M 344.90039 221.92969 C 344.56821 222.27358 344.67145 223.18357 345.13086 223.95312 C 346.38038 226.04622 347.11079 225.63985 346.25391 223.32812 C 345.84121 222.21466 345.23256 221.5858 344.90039 221.92969 z M 329.5332 228.35938 C 329.62678 228.29618 330.38337 228.65813 331.87695 229.39453 C 333.61937 230.25363 335.28382 231.17055 335.57422 231.43359 C 337.31325 233.00875 333.18858 231.54543 331.16992 229.87109 C 330.01023 228.90922 329.43962 228.42256 329.5332 228.35938 z "
       style="fill:#000000"
       id="path3370"
       d="m 339.37891,154.02344 c -2.02683,-0.13737 -3.66104,-0.12526 -5,0.14844 -1.33897,0.27369 -2.41832,0.85052 -3.10157,1.8164 -1.36649,1.93176 -1.12381,4.89317 -0.1914,9.54297 0.87671,4.37208 0.98365,7.39223 0.0527,10.24609 -0.93091,2.85387 -2.94474,5.62646 -6.48047,9.375 -2.48638,2.63604 -3.83729,3.94368 -5.3125,4.59766 -1.4752,0.65398 -3.25609,0.74219 -6.71093,0.74219 -3.25452,0 -5.19948,0.0744 -6.70313,0.61719 -1.50365,0.54278 -2.42094,1.59359 -3.40625,3.15039 -1.85541,2.93161 -2.74932,8.82513 -2.95508,14.93164 -0.20575,6.1065 0.31737,12.2967 1.89844,15.74609 1.56427,3.41273 3.28244,5.63106 5.81836,6.67188 2.53592,1.04081 5.70175,0.87912 10.13672,-0.043 3.23566,-0.67273 5.01567,-0.94763 6.59179,-0.73047 1.57613,0.21716 3.08939,0.9413 5.79688,2.43164 a 0.75097661,0.75097661 0 0 0 0.002,0 0.75097661,0.75097661 0 0 0 0.0801,0.0391 c 4.74078,2.59701 7.82122,3.25084 14.54688,3.08203 2.31589,-0.0581 3.93031,-0.16158 4.80664,-0.31445 0.21908,-0.0382 0.38219,-0.0684 0.58398,-0.15625 0.1009,-0.0439 0.23595,-0.0747 0.40235,-0.31836 0.0832,-0.12182 0.15635,-0.3323 0.13281,-0.53711 -0.0235,-0.20481 -0.1231,-0.35743 -0.20508,-0.44727 -0.32791,-0.35935 -0.46195,-0.28806 -0.66211,-0.33593 -0.20016,-0.0479 -0.43757,-0.0866 -0.73633,-0.125 -1.0746,-0.13806 -2.0547,-0.39749 -2.71484,-0.67383 -0.33007,-0.13817 -0.57911,-0.28375 -0.70117,-0.38281 -0.12207,-0.0991 -0.0488,-0.11212 -0.0488,0.0762 0,-0.51682 -0.40165,-0.90845 -0.7461,-1.07617 -0.34444,-0.16773 -0.71503,-0.23737 -1.14257,-0.27735 -0.85509,-0.0799 -1.93429,-0.002 -3.12305,0.23242 -1.00981,0.199 -1.77899,0.25166 -2.25781,0.23829 -8.7e-4,-0.0249 0.0259,-0.0546 0.0234,-0.0781 -0.0268,-0.25963 -0.11397,-0.47093 -0.22265,-0.67969 -0.21736,-0.41751 -0.54717,-0.83197 -0.97656,-1.29101 -0.8588,-0.9181 -2.12357,-1.98346 -3.63086,-3.0293 -2.93597,-2.03715 -6.72023,-4.7492 -8.375,-5.99805 -0.75128,-0.56698 -1.31857,-0.99211 -1.74805,-1.28515 -0.21474,-0.14652 -0.3918,-0.25973 -0.57227,-0.34961 -0.18046,-0.0899 -0.34757,-0.27072 -0.83203,-0.10742 -0.24223,0.0816 -0.47285,0.35681 -0.53125,0.56054 -0.0584,0.20374 -0.038,0.33497 -0.0195,0.44532 0.037,0.22068 0.10624,0.38314 0.19336,0.58593 0.17423,0.4056 0.44356,0.93034 0.80469,1.62891 0.53644,1.03771 0.9125,1.83301 1.0918,2.36719 0.17929,0.53417 0.0892,0.69155 0.14843,0.60937 0.0296,-0.0411 0.068,-0.0407 -0.0195,-0.0176 -0.0875,0.0231 -0.27816,0.0441 -0.54883,0.0332 -0.54133,-0.0218 -1.38942,-0.16062 -2.50781,-0.38867 -0.81941,-0.16709 -1.46958,-0.28381 -1.98047,-0.34961 -0.51089,-0.0658 -0.83522,-0.12494 -1.26953,0.004 -0.21715,0.0644 -0.58099,0.29358 -0.66406,0.68164 -0.0831,0.38806 0.0724,0.6267 0.18359,0.78907 0.0866,0.12642 0.24249,0.2272 0.34961,0.33398 -0.12018,-0.0259 -0.17037,-0.0288 -0.30273,-0.0586 -1.04375,-0.23464 -2.01528,-0.28606 -2.83399,-0.14649 -0.8187,0.13957 -1.61706,0.48345 -1.88086,1.30274 -0.0368,0.11438 -0.0498,0.1131 -0.0762,0.1289 -0.0264,0.0158 -0.11686,0.054 -0.33398,0.043 -0.43424,-0.0221 -1.27817,-0.27611 -2.42774,-0.81836 -1.60603,-0.75757 -3.05554,-2.47608 -4.17773,-4.82422 -1.12219,-2.34813 -1.91489,-5.2969 -2.29883,-8.39453 -0.76788,-6.19526 0.14688,-12.97963 2.90625,-16.7832 1.14929,-1.58419 1.80421,-2.28567 2.89453,-2.64453 1.09033,-0.35887 2.80919,-0.36103 5.92188,-0.16407 3.32951,0.21069 5.21243,0.30349 6.91015,-0.4082 1.69772,-0.71168 2.96371,-2.12333 5.17578,-4.6582 2.54117,-2.91199 5.4991,-6.68572 6.67578,-8.54492 0.66462,-1.0501 1.1443,-2.73516 1.58008,-4.77149 0.43579,-2.03632 0.7852,-4.39101 1.00586,-6.60351 0.22067,-2.21251 0.31475,-4.27235 0.22266,-5.76368 -0.0461,-0.74566 -0.11882,-1.33441 -0.32422,-1.83398 -0.1027,-0.24978 -0.23948,-0.52013 -0.57812,-0.70703 -0.33322,-0.1839 -0.80273,-0.10574 -1.07422,0.0606 0.0209,-1.64701 0.53393,-2.80895 1.32422,-3.58008 0.80658,-0.78704 1.92625,-1.20021 3.20117,-1.20899 2.54983,-0.0175 5.6514,1.63918 7.39062,5.1211 0.87945,1.76064 1.56328,5.49883 1.73047,8.52734 0.0836,1.51426 0.0429,2.87496 -0.10547,3.69141 -0.0599,0.32976 -0.13305,0.46897 -0.16992,0.55078 -0.17262,-0.0454 -0.31919,-0.14239 -0.51563,-0.0742 -0.34235,0.11881 -0.51792,0.38778 -0.60937,0.59375 -0.1829,0.41195 -0.19353,0.79931 -0.19336,1.28711 3.4e-4,0.9756 0.17074,2.28394 0.43945,3.6875 0.26872,1.40356 0.63775,2.88628 1.05469,4.15234 0.41694,1.26607 0.80617,2.28384 1.43945,2.93946 0.42396,0.4389 0.92252,0.58809 1.63086,0.8125 0.70835,0.2244 1.60165,0.44066 2.63868,0.64453 2.07404,0.40773 4.7147,0.76433 7.45117,0.97851 2.69117,0.21064 5.30934,0.51329 7.34179,0.82813 1.01623,0.15742 1.88642,0.31822 2.53711,0.46875 0.6507,0.15053 1.13582,0.35471 1.11329,0.33984 0.13994,0.0923 0.41285,0.48827 0.57617,1.11719 0.16332,0.62892 0.24072,1.44977 0.21875,2.28711 -0.0145,0.55388 -0.14359,1.06615 -0.25,1.58789 -0.30177,-0.0586 -0.56206,-0.015 -0.81641,0.0606 -0.34673,0.103 -0.7421,0.26643 -1.23242,0.49023 -0.50261,0.2294 -1.9843,0.63202 -3.7793,0.98828 -1.795,0.35626 -3.95233,0.69896 -6.02148,0.93945 -1.69322,0.1968 -2.98284,0.35331 -3.9043,0.48438 -0.46073,0.0655 -0.82894,0.12455 -1.11914,0.18164 -0.2902,0.0571 -0.46935,0.0822 -0.72266,0.20898 -0.0633,0.0317 -0.13744,0.069 -0.23437,0.16211 -0.0969,0.0931 -0.2413,0.28669 -0.2461,0.56055 -0.005,0.27386 0.14677,0.4909 0.25196,0.58984 0.10519,0.099 0.18381,0.13578 0.25,0.16602 0.26473,0.12095 0.43451,0.1316 0.70898,0.17188 0.27811,0.0408 0.84664,0.0818 1.27149,0.12109 -2.06332,0.27575 -3.80355,0.36824 -4.80078,0.2168 -0.57488,-0.0873 -0.88013,-0.25965 -0.9375,-0.30665 0.004,-0.0151 -0.004,-0.0103 0.0391,-0.082 0.24497,-0.41036 0.1664,-0.87292 0.0234,-1.20117 -0.14297,-0.32824 -0.3582,-0.61048 -0.62696,-0.89648 -0.5375,-0.572 -1.30454,-1.14279 -2.2207,-1.65039 -1.40457,-0.77822 -2.25788,-1.83805 -2.58008,-2.91797 -0.3222,-1.07992 -0.15026,-2.19626 0.64453,-3.26172 0.0711,-0.0954 0.12731,-0.17286 0.17578,-0.24805 0.0242,-0.0376 0.0455,-0.0727 0.0723,-0.125 0.0268,-0.0523 0.0857,-0.0693 0.0957,-0.34961 0.001,-0.035 3.5e-4,-0.0765 -0.006,-0.125 -0.006,-0.0485 -0.0408,-0.16545 -0.041,-0.16601 -2.1e-4,-5.7e-4 -0.111,-0.19879 -0.11133,-0.19922 -3.3e-4,-4.3e-4 -0.18705,-0.17354 -0.1875,-0.17383 -4.5e-4,-2.9e-4 -0.21233,-0.0936 -0.21289,-0.0937 -5.7e-4,-1.5e-4 -0.12808,-0.0261 -0.17969,-0.0273 -0.10321,-0.002 -0.17253,0.0148 -0.22461,0.0293 -0.20832,0.058 -0.22748,0.10106 -0.27148,0.13282 -0.088,0.0635 -0.1387,0.11133 -0.20703,0.17578 -0.27335,0.25777 -0.71428,0.72848 -1.33008,1.41406 -1.53957,1.71404 -2.3438,3.60936 -2.30274,5.51953 0.0411,1.91018 0.92386,3.77724 2.53321,5.44336 0.61691,0.63867 1.08746,1.32284 1.32617,1.8418 0.11935,0.25948 0.17689,0.47855 0.1875,0.59179 0.0106,0.11325 -0.0188,0.0653 0.0566,-0.0176 -0.0957,0.10512 -0.18548,0.21993 -0.25586,0.38867 -0.0704,0.16873 -0.11644,0.4306 -0.0195,0.68554 0.0969,0.25495 0.30492,0.41983 0.4668,0.49805 0.16187,0.0782 0.29889,0.10116 0.43164,0.11524 0.53099,0.0563 1.08881,-0.0616 1.83398,-0.28125 0.48278,-0.14234 2.47439,-0.40471 4.98438,-0.60352 2.50998,-0.19881 5.63404,-0.37296 8.75586,-0.4707 4.73842,-0.14836 7.59916,-0.14175 9.19921,0.0879 0.80003,0.11482 1.26466,0.2896 1.48633,0.44336 0.22168,0.15376 0.27366,0.25213 0.32813,0.54492 0.15887,0.85404 0.0533,1.48913 -0.27735,2.03711 -0.33064,0.54798 -0.92943,1.043 -1.89062,1.45312 -1.92238,0.82025 -5.22842,1.2167 -9.8418,1.07227 -3.62614,-0.11352 -5.70992,-0.13329 -6.9043,0.0996 -0.29859,0.0582 -0.54916,0.12285 -0.80468,0.28516 -0.25553,0.1623 -0.53241,0.55813 -0.50977,0.9414 0.0226,0.38328 0.20388,0.60846 0.375,0.80078 0.17112,0.19233 0.37056,0.36171 0.60742,0.54102 0.12197,0.0923 0.12341,0.11109 0.22071,0.1914 -0.49783,0.0376 -1.19467,0.0547 -2.11719,0.0547 -1.0848,0 -1.98722,-0.0868 -2.65039,-0.21875 -0.31812,-0.0633 -0.35527,-0.11807 -0.55078,-0.19336 0.24411,-0.10609 0.34742,-0.19398 0.8457,-0.30273 0.42208,-0.0921 0.75484,-0.17729 1.07812,-0.3711 0.16165,-0.0969 0.33593,-0.23262 0.45899,-0.46289 0.12306,-0.23026 0.14315,-0.54239 0.0781,-0.76953 -0.13004,-0.45427 -0.39621,-0.67038 -0.71289,-0.93359 -0.31667,-0.26321 -0.72423,-0.54198 -1.24414,-0.875 -0.55272,-0.35405 -0.98618,-0.61979 -1.35351,-0.80469 -0.36733,-0.1849 -0.63423,-0.41338 -1.2168,-0.23047 -0.29129,0.0915 -0.55658,0.41476 -0.62109,0.66016 -0.0645,0.2454 -0.0391,0.42696 -0.01,0.60547 0.0586,0.35702 0.18701,0.72621 0.36524,1.20703 0.0261,0.0704 0.0252,0.0945 0.0469,0.1582 -0.3311,-0.18969 -0.64551,-0.39317 -1.00586,-0.42578 -0.24845,-0.0225 -0.58666,0.0277 -0.8418,0.25977 -0.25514,0.23206 -0.33592,0.54751 -0.3457,0.79101 -0.0195,0.48701 0.13734,0.90248 0.375,1.44531 0.23766,0.54284 0.58291,1.18496 1.03906,1.94336 0.67049,1.11474 1.77345,1.87108 3.76758,2.1543 1.99413,0.28322 4.99558,0.25169 10.04102,0.0742 5.1794,-0.18218 8.14724,-0.20389 9.78125,0.0469 0.817,0.12538 1.27273,0.31123 1.54297,0.51368 0.27024,0.20244 0.42146,0.44356 0.58789,0.89257 0.2011,0.54255 0.24377,1.06992 0.18554,1.41602 -0.0582,0.3461 -0.16752,0.42394 -0.20117,0.43555 -0.52732,0.18186 -0.96348,0.52443 -1.20117,0.99609 -0.14022,0.27826 -0.16602,0.60141 -0.12891,0.92383 -0.25487,0.0809 -0.6206,0.17642 -1.16992,0.25781 -1.26377,0.18725 -3.14393,0.31826 -5.28515,0.33594 -2.68481,0.0222 -4.76481,0.0675 -6.25782,0.14258 -0.7465,0.0375 -1.34543,0.0824 -1.81054,0.13672 -0.46512,0.0543 -0.75242,0.0796 -1.09766,0.24218 -0.0863,0.0406 -0.18667,0.0895 -0.30469,0.21485 -0.11802,0.12532 -0.25168,0.39193 -0.2207,0.65625 0.031,0.26432 0.16986,0.42619 0.26758,0.51757 0.0977,0.0914 0.17826,0.1375 0.25586,0.17774 0.31039,0.16095 0.6258,0.23145 1.10156,0.33398 0.55861,0.12039 1.71739,0.26969 2.66016,0.40821 l -0.59571,0.0215 c -2.26167,0.0822 -3.97231,0.1476 -5.20312,0.2207 -1.23082,0.0731 -1.8875,0.0986 -2.44141,0.29883 -0.13848,0.0501 -0.31866,0.0818 -0.51367,0.38282 -0.0975,0.15048 -0.15593,0.4021 -0.11523,0.60351 0.0407,0.20141 0.13762,0.32899 0.21484,0.41211 0.30889,0.33247 0.49716,0.33345 0.78906,0.43555 0.5838,0.20419 1.47086,0.42857 2.67969,0.72851 2.90626,0.7211 7.28595,1.09484 10.01953,0.8418 1.9175,-0.1775 3.04613,-0.11641 3.37891,0.0254 0.16638,0.0709 0.14801,0.0658 0.18164,0.17187 0.0336,0.10607 0.0525,0.38058 -0.01,0.80274 -0.0389,0.26373 -0.16058,0.54584 -0.24219,0.83008 -0.18776,-0.11854 -0.38408,-0.22859 -0.57031,-0.25 -0.49642,-0.0571 -0.98231,0.0508 -1.62305,0.23828 -0.64073,0.1875 -1.41801,0.47487 -2.36523,0.86133 -0.56919,0.23222 -0.9915,0.4129 -1.33789,0.65039 -0.1732,0.11874 -0.3523,0.24629 -0.48633,0.5332 -0.13402,0.28691 -0.0617,0.76433 0.11914,0.99414 0.36175,0.45963 0.72518,0.51435 1.25196,0.67969 0.52677,0.16534 1.22001,0.336 2.12109,0.54297 2.58801,0.59443 4.42714,0.73468 5.78515,-0.0625 0.67901,-0.39859 1.16332,-1.04723 1.43946,-1.82422 0.27613,-0.77699 0.37695,-1.688 0.37695,-2.76953 0,-1.43694 1.1057,-4.04116 2.32617,-5.30469 1.46432,-1.51597 2.36331,-3.4329 2.63086,-5.21875 0.26756,-1.78585 -0.10408,-3.57012 -1.49023,-4.45703 0.0393,0.0252 0.0407,0.0896 0.0293,-0.0352 -0.0114,-0.12478 0.0169,-0.39059 0.12305,-0.73047 0.21237,-0.67976 0.71676,-1.65168 1.47461,-2.71289 1.25885,-1.76274 1.99855,-2.85842 2.11914,-4.15429 0.12059,-1.29588 -0.4118,-2.49084 -1.33008,-4.39649 -0.52548,-1.09051 -0.86414,-2.13319 -0.98828,-2.89062 -0.0621,-0.37872 -0.0648,-0.68738 -0.0391,-0.85938 0.0257,-0.17199 0.0676,-0.14404 -0.0293,-0.082 0.73393,-0.46959 1.10064,-1.28206 1.30274,-2.18164 0.20209,-0.89958 0.23505,-1.93405 0.13476,-3.00781 -0.20057,-2.14752 -0.90715,-4.44407 -2.21093,-5.93555 -0.8649,-0.98941 -2.0105,-1.68053 -3.5293,-2.08984 -1.5188,-0.40932 -3.41712,-0.56641 -5.94531,-0.56641 -3.63216,0 -8.72867,-0.89514 -10.9668,-1.86328 l -3.95508,-1.71094 0.76563,-9.01562 c 0.369,-4.34089 0.51471,-6.87646 0.19336,-8.93946 -0.32135,-2.06299 -1.13523,-3.57656 -2.51758,-5.68164 -1.32017,-2.01038 -2.34535,-3.29239 -3.75781,-4.09375 -1.41247,-0.80135 -3.08348,-1.05758 -5.60547,-1.22851 z m 8.65429,65.91015 c -0.25007,-0.0616 -0.51082,-0.0652 -0.78906,0.0215 -0.27851,0.0867 -0.54475,0.30367 -0.68555,0.56445 -0.14079,0.26078 -0.17527,0.53716 -0.16015,0.80274 0.0302,0.53115 0.24389,1.06994 0.62304,1.70507 0.60877,1.01976 1.6622,1.76368 2.82813,1.76368 0.32224,0 0.68529,-0.065 0.97656,-0.34571 0.29128,-0.28069 0.37119,-0.71011 0.33008,-1.03125 -0.0822,-0.64228 -0.43804,-1.17002 -0.97656,-1.84179 -0.47721,-0.59528 -0.95174,-1.0292 -1.42188,-1.31446 -0.23506,-0.14263 -0.47453,-0.26266 -0.72461,-0.32422 z m -2.65429,1.18555 c -0.3197,-0.0812 -0.77743,0.0384 -1.01953,0.28906 -0.42304,0.43796 -0.44259,0.96791 -0.38672,1.45899 0.0559,0.49108 0.22988,0.99533 0.51367,1.4707 0.33436,0.5601 0.63616,0.97096 0.94922,1.26953 0.15652,0.14929 0.31302,0.2763 0.53125,0.36914 0.21822,0.0928 0.57168,0.1447 0.88086,-0.0273 0.30917,-0.17204 0.43749,-0.46616 0.48828,-0.6875 0.0508,-0.22134 0.0487,-0.42321 0.0273,-0.64063 -0.0428,-0.43483 -0.17745,-0.93743 -0.40625,-1.55468 -0.23215,-0.62633 -0.50789,-1.13061 -0.87109,-1.50586 -0.1816,-0.18763 -0.38734,-0.36021 -0.70703,-0.44141 z m -7.50586,11.6875 c -1.9e-4,0.006 0.006,0.01 0.006,0.0156 -0.0151,0.18872 -0.0883,0.25051 -0.0879,0.25 0.069,-0.0774 0.0413,-0.17478 0.082,-0.26563 z" />
    <text
       xml:space="preserve"
       style="font-style:normal;font-variant:normal;font-weight:normal;font-stretch:normal;font-size:56.05597687px;line-height:125%;font-family:Sans;-inkscape-font-specification:'Sans, Normal';text-align:start;letter-spacing:0px;word-spacing:0px;writing-mode:lr-tb;text-anchor:start;fill:#000000;fill-opacity:1;stroke:none;stroke-width:1px;stroke-linecap:butt;stroke-linejoin:miter;stroke-opacity:1"
       x="171.98511"
       y="231.86763"
       id="text3349"
       sodipodi:linespacing="125%"><tspan
         sodipodi:role="line"
         id="tspan3351"
         x="171.98511"
         y="231.86763">LAIK</tspan></text>
    <g
       style="font-style:normal;font-variant:normal;font-weight:normal;font-stretch:normal;font-size:45px;line-height:125%;font-family:Sans;-inkscape-font-specification:'Sans, Normal';text-align:start;letter-spacing:0px;word-spacing:0px;writing-mode:lr-tb;text-anchor:start;fill:#000000;fill-opacity:1;stroke:none;stroke-width:1px;stroke-linecap:butt;stroke-linejoin:miter;stroke-opacity:1"
       id="text3355"
       transform="matrix(2.9160743,0,0,2.9160743,-187.9484,-495.21856)" />
  </g>
</svg>
